  0
SECTION
  2
HEADER
  9
$ACADVER
  1
AC1009
  9
$DWGCODEPAGE
  3
ansi_1252
  9
$INSBASE
 10
0.0
 20
0.0
 30
0.0
  9
$EXTMIN
 10
-40.00000000000001
 20
-30.00000000000002
 30
0.0
  9
$EXTMAX
 10
40.00000000000002
 20
30.0
 30
0.0
  9
$LIMMIN
 10
0.0
 20
0.0
  9
$LIMMAX
 10
12.0
 20
9.0
  9
$ORTHOMODE
 70
     0
  9
$REGENMODE
 70
     1
  9
$FILLMODE
 70
     1
  9
$QTEXTMODE
 70
     0
  9
$MIRRTEXT
 70
     1
  9
$DRAGMODE
 70
     2
  9
$LTSCALE
 40
1.0
  9
$OSMODE
 70
    37
  9
$ATTMODE
 70
     1
  9
$TEXTSIZE
 40
0.2
  9
$TRACEWID
 40
0.05
  9
$TEXTSTYLE
  7
STANDARD
  9
$CLAYER
  8
DEFAULT
  9
$CELTYPE
  6
BYLAYER
  9
$CECOLOR
 62
   256
  9
$DIMSCALE
 40
1.0
  9
$DIMASZ
 40
0.18
  9
$DIMEXO
 40
0.0625
  9
$DIMDLI
 40
0.38
  9
$DIMRND
 40
0.0
  9
$DIMDLE
 40
0.0
  9
$DIMEXE
 40
0.18
  9
$DIMTP
 40
0.0
  9
$DIMTM
 40
0.0
  9
$DIMTXT
 40
0.18
  9
$DIMCEN
 40
0.09
  9
$DIMTSZ
 40
0.0
  9
$DIMTOL
 70
     0
  9
$DIMLIM
 70
     0
  9
$DIMTIH
 70
     1
  9
$DIMTOH
 70
     1
  9
$DIMSE1
 70
     0
  9
$DIMSE2
 70
     0
  9
$DIMTAD
 70
     0
  9
$DIMZIN
 70
     0
  9
$DIMBLK
  1

  9
$DIMASO
 70
     1
  9
$DIMSHO
 70
     1
  9
$DIMPOST
  1

  9
$DIMAPOST
  1

  9
$DIMALT
 70
     0
  9
$DIMALTD
 70
     2
  9
$DIMALTF
 40
25.4
  9
$DIMLFAC
 40
1.0
  9
$DIMTOFL
 70
     0
  9
$DIMTVP
 40
0.0
  9
$DIMTIX
 70
     0
  9
$DIMSOXD
 70
     0
  9
$DIMSAH
 70
     0
  9
$DIMBLK1
  1

  9
$DIMBLK2
  1

  9
$DIMSTYLE
  2
STANDARD
  9
$DIMCLRD
 70
     0
  9
$DIMCLRE
 70
     0
  9
$DIMCLRT
 70
     0
  9
$DIMTFAC
 40
1.0
  9
$DIMGAP
 40
0.09
  9
$LUNITS
 70
     2
  9
$LUPREC
 70
     3
  9
$SKETCHINC
 40
0.1
  9
$FILLETRAD
 40
0.5
  9
$AUNITS
 70
     0
  9
$AUPREC
 70
     0
  9
$MENU
  1
.
  9
$ELEVATION
 40
0.0
  9
$PELEVATION
 40
0.0
  9
$THICKNESS
 40
0.0
  9
$LIMCHECK
 70
     0
  9
$CHAMFERA
 40
0.0
  9
$CHAMFERB
 40
0.0
  9
$SKPOLY
 70
     0
  9
$TDCREATE
 40
2458177.882327361
  9
$TDUPDATE
 40
2458177.88267647
  9
$TDINDWG
 40
0.0000000116
  9
$TDUSRTIMER
 40
0.0000000116
  9
$USRTIMER
 70
     1
  9
$ANGBASE
 50
0.0
  9
$ANGDIR
 70
     0
  9
$PDMODE
 70
     0
  9
$PDSIZE
 40
0.0
  9
$PLINEWID
 40
0.0
  9
$COORDS
 70
     1
  9
$SPLFRAME
 70
     0
  9
$SPLINETYPE
 70
     6
  9
$SPLINESEGS
 70
     8
  9
$ATTDIA
 70
     0
  9
$ATTREQ
 70
     1
  9
$HANDLING
 70
     1
  9
$HANDSEED
  5
108
  9
$SURFTAB1
 70
     6
  9
$SURFTAB2
 70
     6
  9
$SURFTYPE
 70
     6
  9
$SURFU
 70
     6
  9
$SURFV
 70
     6
  9
$UCSNAME
  2

  9
$UCSORG
 10
0.0
 20
0.0
 30
0.0
  9
$UCSXDIR
 10
1.0
 20
0.0
 30
0.0
  9
$UCSYDIR
 10
0.0
 20
1.0
 30
0.0
  9
$PUCSNAME
  2

  9
$PUCSORG
 10
0.0
 20
0.0
 30
0.0
  9
$PUCSXDIR
 10
1.0
 20
0.0
 30
0.0
  9
$PUCSYDIR
 10
0.0
 20
1.0
 30
0.0
  9
$USERI1
 70
     0
  9
$USERI2
 70
     0
  9
$USERI3
 70
     0
  9
$USERI4
 70
     0
  9
$USERI5
 70
     0
  9
$USERR1
 40
0.0
  9
$USERR2
 40
0.0
  9
$USERR3
 40
0.0
  9
$USERR4
 40
0.0
  9
$USERR5
 40
0.0
  9
$WORLDVIEW
 70
     1
  9
$SHADEDGE
 70
     3
  9
$SHADEDIF
 70
    70
  9
$TILEMODE
 70
     1
  9
$MAXACTVP
 70
    64
  9
$PLIMCHECK
 70
     0
  9
$PEXTMIN
 10
1.000000000000000E+20
 20
1.000000000000000E+20
 30
1.000000000000000E+20
  9
$PEXTMAX
 10
-1.000000000000000E+20
 20
-1.000000000000000E+20
 30
-1.000000000000000E+20
  9
$PLIMMIN
 10
0.0
 20
0.0
  9
$PLIMMAX
 10
12.0
 20
9.0
  9
$UNITMODE
 70
     0
  9
$VISRETAIN
 70
     1
  9
$PLINEGEN
 70
     0
  9
$PSLTSCALE
 70
     1
  0
ENDSEC
  0
SECTION
  2
TABLES
  0
TABLE
  2
VPORT
 70
     1
  0
VPORT
  2
*ACTIVE
 70
     0
 10
0.0
 20
0.0
 11
1.0
 21
1.0
 12
0.0
 22
0.0
 13
0.0
 23
0.0
 14
0.5
 24
0.5
 15
0.5
 25
0.5
 16
0.0
 26
0.0
 36
1.0
 17
0.0000000000000071
 27
-0.0000000000000107
 37
0.0
 40
61.20000000000002
 41
1.333333333333333
 42
50.0
 43
0.0
 44
0.0
 50
0.0
 51
0.0
 71
     0
 72
   100
 73
     1
 74
     3
 75
     0
 76
     0
 77
     0
 78
     0
  0
ENDTAB
  0
TABLE
  2
LTYPE
 70
     1
  0
LTYPE
  2
CONTINUOUS
 70
     0
  3
Solid line
 72
    65
 73
     0
 40
0.0
  0
ENDTAB
  0
TABLE
  2
LAYER
 70
     2
  0
LAYER
  2
0
 70
     0
 62
     7
  6
CONTINUOUS
  0
LAYER
  2
DEFAULT
 70
     0
 62
     7
  6
CONTINUOUS
  0
ENDTAB
  0
TABLE
  2
STYLE
 70
     1
  0
STYLE
  2
STANDARD
 70
     0
 40
0.0
 41
1.0
 50
0.0
 71
     0
 42
0.2
  3
txt
  4

  0
ENDTAB
  0
TABLE
  2
VIEW
 70
     0
  0
ENDTAB
  0
TABLE
  2
UCS
 70
     0
  0
ENDTAB
  0
TABLE
  2
APPID
 70
     1
  0
APPID
  2
ACAD
 70
     0
  0
ENDTAB
  0
TABLE
  2
DIMSTYLE
 70
     1
  0
DIMSTYLE
  2
STANDARD
 70
     0
  3

  4

  5

  6

  7

 40
1.0
 41
0.18
 42
0.0625
 43
0.38
 44
0.18
 45
0.0
 46
0.0
 47
0.0
 48
0.0
140
0.18
141
0.09
142
0.0
143
25.4
144
1.0
145
0.0
146
1.0
147
0.09
 71
     0
 72
     0
 73
     1
 74
     1
 75
     0
 76
     0
 77
     0
 78
     0
170
     0
171
     2
172
     0
173
     0
174
     0
175
     0
176
     0
177
     0
178
     0
  0
ENDTAB
  0
ENDSEC
  0
SECTION
  2
BLOCKS
  0
BLOCK
  8
0
  2
$MODEL_SPACE
 70
     0
 10
0.0
 20
0.0
 30
0.0
  3
$MODEL_SPACE
  1

  0
ENDBLK
  5
21
  8
0
  0
BLOCK
 67
     1
  8
0
  2
$PAPER_SPACE
 70
     0
 10
0.0
 20
0.0
 30
0.0
  3
$PAPER_SPACE
  1

  0
ENDBLK
  5
1D
 67
     1
  8
0
  0
ENDSEC
  0
SECTION
  2
ENTITIES
  0
LINE
  5
6F
  8
DEFAULT
 10
40.0
 20
-28.50000000000002
 30
0.0
 11
40.0
 21
-10.0
 31
0.0
  0
LINE
  5
70
  8
DEFAULT
 10
40.0
 20
-10.0
 30
0.0
 11
40.0
 21
-6.299999999999828
 31
0.0
  0
ARC
  5
71
  8
DEFAULT
 10
38.5
 20
-6.299999999999894
 30
0.0
 40
1.5
 50
0.0000000000025105
 51
89.99999999999919
  0
LINE
  5
72
  8
DEFAULT
 10
38.50000000000002
 20
-4.799999999999894
 30
0.0
 11
31.02142271817243
 21
-4.800000000000004
 31
0.0
  0
ARC
  5
73
  8
DEFAULT
 10
31.02142271817243
 20
-6.299999999999894
 30
0.0
 40
1.49999999999989
 50
90.0
 51
131.3115740546939
  0
ARC
  5
74
  8
DEFAULT
 10
29.00000000000004
 20
-4.000000000000007
 30
0.0
 40
1.562049935181267
 50
48.688425945308
 51
311.3115740546918
  0
ARC
  5
75
  8
DEFAULT
 10
31.02142271817244
 20
-1.700000000000124
 30
0.0
 40
1.499999999999879
 50
228.688425945306
 51
269.9999999999997
  0
LINE
  5
76
  8
DEFAULT
 10
31.02142271817243
 20
-3.200000000000003
 30
0.0
 11
38.49999999999999
 21
-3.200000000000002
 31
0.0
  0
ARC
  5
77
  8
DEFAULT
 10
38.49999999999999
 20
-1.700000000000002
 30
0.0
 40
1.5
 50
270.0
 51
359.9999999999985
  0
LINE
  5
78
  8
DEFAULT
 10
39.99999999999999
 20
-1.700000000000042
 30
0.0
 11
40.0
 21
1.699999999999959
 31
0.0
  0
ARC
  5
79
  8
DEFAULT
 10
38.5
 20
1.700000000000043
 30
0.0
 40
1.5
 50
359.9999999999968
 51
89.99999999999567
  0
LINE
  5
7A
  8
DEFAULT
 10
38.50000000000011
 20
3.200000000000043
 30
0.0
 11
31.02142271817243
 21
3.199999999999996
 31
0.0
  0
ARC
  5
7B
  8
DEFAULT
 10
31.02142271817243
 20
1.700000000000105
 30
0.0
 40
1.499999999999891
 50
89.99999999999987
 51
131.3115740546938
  0
ARC
  5
7C
  8
DEFAULT
 10
29.00000000000004
 20
3.999999999999993
 30
0.0
 40
1.562049935181267
 50
48.688425945308
 51
311.3115740546918
  0
ARC
  5
7D
  8
DEFAULT
 10
31.02142271817244
 20
6.299999999999876
 30
0.0
 40
1.499999999999879
 50
228.688425945306
 51
269.9999999999997
  0
LINE
  5
7E
  8
DEFAULT
 10
31.02142271817243
 20
4.799999999999997
 30
0.0
 11
38.50000000000003
 21
4.799999999999997
 31
0.0
  0
ARC
  5
7F
  8
DEFAULT
 10
38.50000000000002
 20
6.299999999999997
 30
0.0
 40
1.5
 50
270.0000000000002
 51
0.000000000001357
  0
LINE
  5
80
  8
DEFAULT
 10
40.00000000000002
 20
6.300000000000033
 30
0.0
 11
40.0
 21
10.0
 31
0.0
  0
LINE
  5
81
  8
DEFAULT
 10
40.0
 20
10.0
 30
0.0
 11
40.0
 21
30.0
 31
0.0
  0
LINE
  5
82
  8
DEFAULT
 10
40.0
 20
30.0
 30
0.0
 11
-40.0
 21
30.0
 31
0.0
  0
LINE
  5
83
  8
DEFAULT
 10
-40.0
 20
30.0
 30
0.0
 11
-40.0
 21
10.0
 31
0.0
  0
LINE
  5
84
  8
DEFAULT
 10
-40.0
 20
10.0
 30
0.0
 11
-40.0
 21
6.299999999999997
 31
0.0
  0
ARC
  5
85
  8
DEFAULT
 10
-38.5
 20
6.299999999999994
 30
0.0
 40
1.5
 50
179.9999999999999
 51
270.0000000000008
  0
LINE
  5
86
  8
DEFAULT
 10
-38.49999999999998
 20
4.799999999999994
 30
0.0
 11
-31.02142271817242
 21
4.799999999999997
 31
0.0
  0
ARC
  5
87
  8
DEFAULT
 10
-31.02142271817242
 20
6.299999999999848
 30
0.0
 40
1.499999999999851
 50
270.0
 51
311.3115740546945
  0
ARC
  5
88
  8
DEFAULT
 10
-29.00000000000001
 20
3.999999999999972
 30
0.0
 40
1.5620499351813
 50
228.6884259453066
 51
131.311574054692
  0
ARC
  5
89
  8
DEFAULT
 10
-31.02142271817242
 20
1.699999999999996
 30
0.0
 40
1.5
 50
48.68842594530977
 51
90.0
  0
LINE
  5
8A
  8
DEFAULT
 10
-31.02142271817242
 20
3.199999999999996
 30
0.0
 11
-38.5
 21
3.199999999999996
 31
0.0
  0
ARC
  5
8B
  8
DEFAULT
 10
-38.50000000000001
 20
1.699999999999996
 30
0.0
 40
1.5
 50
89.99999999999973
 51
179.9999999999999
  0
LINE
  5
8C
  8
DEFAULT
 10
-40.00000000000001
 20
1.699999999999998
 30
0.0
 11
-40.0
 21
-1.700000000000004
 31
0.0
  0
ARC
  5
8D
  8
DEFAULT
 10
-38.5
 20
-1.700000000000005
 30
0.0
 40
1.5
 50
180.0
 51
270.0
  0
LINE
  5
8E
  8
DEFAULT
 10
-38.5
 20
-3.200000000000005
 30
0.0
 11
-31.02142271817242
 21
-3.200000000000003
 31
0.0
  0
ARC
  5
8F
  8
DEFAULT
 10
-31.02142271817242
 20
-1.700000000000152
 30
0.0
 40
1.499999999999851
 50
270.0
 51
311.3115740546945
  0
ARC
  5
90
  8
DEFAULT
 10
-29.00000000000001
 20
-4.000000000000028
 30
0.0
 40
1.5620499351813
 50
228.6884259453066
 51
131.311574054692
  0
ARC
  5
91
  8
DEFAULT
 10
-31.02142271817242
 20
-6.300000000000004
 30
0.0
 40
1.5
 50
48.68842594530976
 51
90.0
  0
LINE
  5
92
  8
DEFAULT
 10
-31.02142271817242
 20
-4.800000000000004
 30
0.0
 11
-38.5
 21
-4.800000000000005
 31
0.0
  0
ARC
  5
93
  8
DEFAULT
 10
-38.5
 20
-6.300000000000005
 30
0.0
 40
1.5
 50
90.0
 51
180.0000000000001
  0
LINE
  5
94
  8
DEFAULT
 10
-40.0
 20
-6.300000000000008
 30
0.0
 11
-40.0
 21
-10.0
 31
0.0
  0
LINE
  5
95
  8
DEFAULT
 10
-40.0
 20
-10.0
 30
0.0
 11
-40.0
 21
-28.49999999999979
 31
0.0
  0
ARC
  5
96
  8
DEFAULT
 10
-38.5
 20
-28.50000000000002
 30
0.0
 40
1.5
 50
179.9999999999913
 51
270.0
  0
LINE
  5
97
  8
DEFAULT
 10
-38.5
 20
-30.00000000000002
 30
0.0
 11
38.5
 21
-30.0
 31
0.0
  0
ARC
  5
98
  8
DEFAULT
 10
38.5
 20
-28.5
 30
0.0
 40
1.5
 50
270.0
 51
359.9999999999993
  0
ARC
  5
99
  8
DEFAULT
 10
-7.97857728182759
 20
10.29999999999989
 30
0.0
 40
1.499999999999911
 50
228.6884259453069
 51
269.9999999999998
  0
ARC
  5
9A
  8
DEFAULT
 10
-9.999999999999986
 20
7.999999999999972
 30
0.0
 40
1.56204993518127
 50
48.68842594530791
 51
311.3115740546921
  0
ARC
  5
9B
  8
DEFAULT
 10
-7.97857728182759
 20
5.700000000000095
 30
0.0
 40
1.499999999999879
 50
90.00000000000014
 51
131.3115740546942
  0
LINE
  5
9C
  8
DEFAULT
 10
-7.97857728182759
 20
7.199999999999974
 30
0.0
 11
7.978577281827562
 21
7.199999999999974
 31
0.0
  0
ARC
  5
9D
  8
DEFAULT
 10
7.978577281827562
 20
5.70000000000012
 30
0.0
 40
1.499999999999854
 50
48.68842594530589
 51
90.0
  0
ARC
  5
9E
  8
DEFAULT
 10
9.99999999999995
 20
8.0
 30
0.0
 40
1.562049935181293
 50
228.6884259453082
 51
131.3115740546929
  0
ARC
  5
9F
  8
DEFAULT
 10
7.978577281827562
 20
10.29999999999998
 30
0.0
 40
1.5
 50
270.0
 51
311.3115740546907
  0
LINE
  5
A0
  8
DEFAULT
 10
7.978577281827562
 20
8.799999999999976
 30
0.0
 11
-7.97857728182759
 21
8.799999999999976
 31
0.0
  0
ARC
  5
A1
  8
DEFAULT
 10
18.02142271817244
 20
10.29999999999988
 30
0.0
 40
1.499999999999879
 50
228.688425945306
 51
269.9999999999997
  0
ARC
  5
A2
  8
DEFAULT
 10
16.00000000000004
 20
7.999999999999993
 30
0.0
 40
1.562049935181267
 50
48.688425945308
 51
311.311574054692
  0
ARC
  5
A3
  8
DEFAULT
 10
18.02142271817243
 20
5.700000000000106
 30
0.0
 40
1.49999999999989
 50
90.0
 51
131.3115740546939
  0
LINE
  5
A4
  8
DEFAULT
 10
18.02142271817243
 20
7.199999999999996
 30
0.0
 11
33.97857728182758
 21
7.199999999999996
 31
0.0
  0
ARC
  5
A5
  8
DEFAULT
 10
33.97857728182758
 20
5.699999999999996
 30
0.0
 40
1.5
 50
48.68842594530966
 51
90.0
  0
ARC
  5
A6
  8
DEFAULT
 10
35.99999999999997
 20
7.999999999999964
 30
0.0
 40
1.562049935181295
 50
228.6884259453064
 51
131.3115740546914
  0
ARC
  5
A7
  8
DEFAULT
 10
33.97857728182758
 20
10.29999999999986
 30
0.0
 40
1.499999999999861
 50
270.0
 51
311.3115740546943
  0
LINE
  5
A8
  8
DEFAULT
 10
33.97857728182758
 20
8.799999999999997
 30
0.0
 11
18.02142271817243
 21
8.799999999999997
 31
0.0
  0
ARC
  5
A9
  8
DEFAULT
 10
-33.97857728182757
 20
10.29999999999989
 30
0.0
 40
1.49999999999989
 50
228.6884259453066
 51
270.0
  0
ARC
  5
AA
  8
DEFAULT
 10
-35.99999999999996
 20
7.999999999999993
 30
0.0
 40
1.562049935181269
 50
48.688425945308
 51
311.3115740546919
  0
ARC
  5
AB
  8
DEFAULT
 10
-33.97857728182757
 20
5.700000000000109
 30
0.0
 40
1.499999999999886
 50
90.0
 51
131.3115740546939
  0
LINE
  5
AC
  8
DEFAULT
 10
-33.97857728182757
 20
7.199999999999996
 30
0.0
 11
-18.02142271817241
 21
7.199999999999996
 31
0.0
  0
ARC
  5
AD
  8
DEFAULT
 10
-18.02142271817241
 20
5.699999999999996
 30
0.0
 40
1.5
 50
48.68842594530976
 51
90.0
  0
ARC
  5
AE
  8
DEFAULT
 10
-16.00000000000001
 20
7.999999999999972
 30
0.0
 40
1.5620499351813
 50
228.6884259453066
 51
131.3115740546921
  0
ARC
  5
AF
  8
DEFAULT
 10
-18.02142271817242
 20
10.29999999999985
 30
0.0
 40
1.499999999999851
 50
270.0
 51
311.3115740546945
  0
LINE
  5
B0
  8
DEFAULT
 10
-18.02142271817242
 20
8.799999999999997
 30
0.0
 11
-33.97857728182757
 21
8.799999999999997
 31
0.0
  0
ARC
  5
B1
  8
DEFAULT
 10
-20.97857728182757
 20
6.299999999999887
 30
0.0
 40
1.49999999999989
 50
228.6884259453064
 51
269.9999999999998
  0
ARC
  5
B2
  8
DEFAULT
 10
-22.99999999999996
 20
3.999999999999993
 30
0.0
 40
1.562049935181269
 50
48.68842594530791
 51
311.3115740546918
  0
ARC
  5
B3
  8
DEFAULT
 10
-20.97857728182757
 20
1.700000000000109
 30
0.0
 40
1.499999999999886
 50
90.0
 51
131.311574054694
  0
LINE
  5
B4
  8
DEFAULT
 10
-20.97857728182757
 20
3.199999999999996
 30
0.0
 11
-5.021422718172413
 21
3.199999999999996
 31
0.0
  0
ARC
  5
B5
  8
DEFAULT
 10
-5.021422718172413
 20
1.699999999999996
 30
0.0
 40
1.5
 50
48.68842594530975
 51
90.0
  0
ARC
  5
B6
  8
DEFAULT
 10
-3.000000000000014
 20
3.999999999999972
 30
0.0
 40
1.5620499351813
 50
228.6884259453066
 51
131.3115740546921
  0
ARC
  5
B7
  8
DEFAULT
 10
-5.02142271817242
 20
6.299999999999848
 30
0.0
 40
1.499999999999851
 50
270.0
 51
311.3115740546944
  0
LINE
  5
B8
  8
DEFAULT
 10
-5.02142271817242
 20
4.799999999999997
 30
0.0
 11
-20.97857728182757
 21
4.799999999999997
 31
0.0
  0
ARC
  5
B9
  8
DEFAULT
 10
5.02142271817241
 20
6.299999999999887
 30
0.0
 40
1.499999999999911
 50
228.6884259453069
 51
269.9999999999998
  0
ARC
  5
BA
  8
DEFAULT
 10
3.000000000000014
 20
3.999999999999972
 30
0.0
 40
1.56204993518127
 50
48.68842594530791
 51
311.3115740546921
  0
ARC
  5
BB
  8
DEFAULT
 10
5.02142271817241
 20
1.700000000000095
 30
0.0
 40
1.499999999999879
 50
90.00000000000014
 51
131.3115740546941
  0
LINE
  5
BC
  8
DEFAULT
 10
5.02142271817241
 20
3.199999999999974
 30
0.0
 11
20.97857728182756
 21
3.199999999999974
 31
0.0
  0
ARC
  5
BD
  8
DEFAULT
 10
20.97857728182756
 20
1.70000000000012
 30
0.0
 40
1.499999999999854
 50
48.68842594530584
 51
90.0
  0
ARC
  5
BE
  8
DEFAULT
 10
22.99999999999995
 20
4.0
 30
0.0
 40
1.562049935181293
 50
228.6884259453082
 51
131.3115740546929
  0
ARC
  5
BF
  8
DEFAULT
 10
20.97857728182756
 20
6.299999999999976
 30
0.0
 40
1.5
 50
270.0
 51
311.3115740546907
  0
LINE
  5
C0
  8
DEFAULT
 10
20.97857728182756
 20
4.799999999999976
 30
0.0
 11
5.02142271817241
 21
4.799999999999976
 31
0.0
  0
ARC
  5
C1
  8
DEFAULT
 10
-7.97857728182759
 20
2.299999999999887
 30
0.0
 40
1.499999999999911
 50
228.6884259453069
 51
269.9999999999998
  0
ARC
  5
C2
  8
DEFAULT
 10
-9.999999999999986
 20
-0.0000000000000284
 30
0.0
 40
1.56204993518127
 50
48.68842594530791
 51
311.3115740546921
  0
ARC
  5
C3
  8
DEFAULT
 10
-7.97857728182759
 20
-2.299999999999905
 30
0.0
 40
1.499999999999879
 50
90.00000000000014
 51
131.3115740546942
  0
LINE
  5
C4
  8
DEFAULT
 10
-7.97857728182759
 20
-0.8000000000000256
 30
0.0
 11
7.978577281827562
 21
-0.8000000000000256
 31
0.0
  0
ARC
  5
C5
  8
DEFAULT
 10
7.978577281827562
 20
-2.29999999999988
 30
0.0
 40
1.499999999999854
 50
48.68842594530589
 51
90.0
  0
ARC
  5
C6
  8
DEFAULT
 10
9.99999999999995
 20
0.0
 30
0.0
 40
1.562049935181293
 50
228.6884259453082
 51
131.3115740546929
  0
ARC
  5
C7
  8
DEFAULT
 10
7.978577281827562
 20
2.299999999999976
 30
0.0
 40
1.5
 50
270.0
 51
311.3115740546907
  0
LINE
  5
C8
  8
DEFAULT
 10
7.978577281827562
 20
0.7999999999999758
 30
0.0
 11
-7.97857728182759
 21
0.7999999999999758
 31
0.0
  0
ARC
  5
C9
  8
DEFAULT
 10
18.02142271817244
 20
2.299999999999876
 30
0.0
 40
1.499999999999879
 50
228.688425945306
 51
269.9999999999997
  0
ARC
  5
CA
  8
DEFAULT
 10
16.00000000000004
 20
-0.0000000000000071
 30
0.0
 40
1.562049935181267
 50
48.688425945308
 51
311.311574054692
  0
ARC
  5
CB
  8
DEFAULT
 10
18.02142271817243
 20
-2.299999999999894
 30
0.0
 40
1.49999999999989
 50
90.0
 51
131.3115740546939
  0
LINE
  5
CC
  8
DEFAULT
 10
18.02142271817243
 20
-0.8000000000000043
 30
0.0
 11
33.97857728182758
 21
-0.8000000000000043
 31
0.0
  0
ARC
  5
CD
  8
DEFAULT
 10
33.97857728182758
 20
-2.300000000000004
 30
0.0
 40
1.5
 50
48.68842594530967
 51
90.0
  0
ARC
  5
CE
  8
DEFAULT
 10
35.99999999999997
 20
-0.0000000000000355
 30
0.0
 40
1.562049935181295
 50
228.6884259453064
 51
131.3115740546914
  0
ARC
  5
CF
  8
DEFAULT
 10
33.97857728182758
 20
2.299999999999859
 30
0.0
 40
1.499999999999861
 50
270.0
 51
311.3115740546943
  0
LINE
  5
D0
  8
DEFAULT
 10
33.97857728182758
 20
0.7999999999999972
 30
0.0
 11
18.02142271817243
 21
0.7999999999999972
 31
0.0
  0
ARC
  5
D1
  8
DEFAULT
 10
-33.97857728182757
 20
2.299999999999887
 30
0.0
 40
1.49999999999989
 50
228.6884259453066
 51
270.0
  0
ARC
  5
D2
  8
DEFAULT
 10
-35.99999999999996
 20
-0.0000000000000071
 30
0.0
 40
1.562049935181269
 50
48.688425945308
 51
311.3115740546919
  0
ARC
  5
D3
  8
DEFAULT
 10
-33.97857728182757
 20
-2.299999999999891
 30
0.0
 40
1.499999999999886
 50
90.0
 51
131.3115740546939
  0
LINE
  5
D4
  8
DEFAULT
 10
-33.97857728182757
 20
-0.8000000000000043
 30
0.0
 11
-18.02142271817241
 21
-0.8000000000000043
 31
0.0
  0
ARC
  5
D5
  8
DEFAULT
 10
-18.02142271817241
 20
-2.300000000000004
 30
0.0
 40
1.5
 50
48.68842594530977
 51
90.0
  0
ARC
  5
D6
  8
DEFAULT
 10
-16.00000000000001
 20
-0.0000000000000284
 30
0.0
 40
1.5620499351813
 50
228.6884259453066
 51
131.3115740546921
  0
ARC
  5
D7
  8
DEFAULT
 10
-18.02142271817242
 20
2.299999999999848
 30
0.0
 40
1.499999999999851
 50
270.0
 51
311.3115740546945
  0
LINE
  5
D8
  8
DEFAULT
 10
-18.02142271817242
 20
0.7999999999999972
 30
0.0
 11
-33.97857728182757
 21
0.7999999999999972
 31
0.0
  0
ARC
  5
D9
  8
DEFAULT
 10
-20.97857728182757
 20
-1.700000000000113
 30
0.0
 40
1.49999999999989
 50
228.6884259453064
 51
269.9999999999998
  0
ARC
  5
DA
  8
DEFAULT
 10
-22.99999999999996
 20
-4.000000000000007
 30
0.0
 40
1.562049935181269
 50
48.68842594530791
 51
311.3115740546918
  0
ARC
  5
DB
  8
DEFAULT
 10
-20.97857728182757
 20
-6.299999999999891
 30
0.0
 40
1.499999999999886
 50
90.0
 51
131.311574054694
  0
LINE
  5
DC
  8
DEFAULT
 10
-20.97857728182757
 20
-4.800000000000004
 30
0.0
 11
-5.021422718172413
 21
-4.800000000000004
 31
0.0
  0
ARC
  5
DD
  8
DEFAULT
 10
-5.021422718172413
 20
-6.300000000000004
 30
0.0
 40
1.5
 50
48.68842594530973
 51
90.0
  0
ARC
  5
DE
  8
DEFAULT
 10
-3.000000000000014
 20
-4.000000000000028
 30
0.0
 40
1.5620499351813
 50
228.6884259453066
 51
131.3115740546921
  0
ARC
  5
DF
  8
DEFAULT
 10
-5.02142271817242
 20
-1.700000000000152
 30
0.0
 40
1.499999999999851
 50
270.0
 51
311.3115740546944
  0
LINE
  5
E0
  8
DEFAULT
 10
-5.02142271817242
 20
-3.200000000000003
 30
0.0
 11
-20.97857728182757
 21
-3.200000000000003
 31
0.0
  0
ARC
  5
E1
  8
DEFAULT
 10
5.02142271817241
 20
-1.700000000000113
 30
0.0
 40
1.499999999999911
 50
228.6884259453069
 51
269.9999999999998
  0
ARC
  5
E2
  8
DEFAULT
 10
3.000000000000014
 20
-4.000000000000028
 30
0.0
 40
1.56204993518127
 50
48.68842594530791
 51
311.3115740546921
  0
ARC
  5
E3
  8
DEFAULT
 10
5.02142271817241
 20
-6.299999999999905
 30
0.0
 40
1.499999999999879
 50
90.00000000000014
 51
131.3115740546942
  0
LINE
  5
E4
  8
DEFAULT
 10
5.02142271817241
 20
-4.800000000000026
 30
0.0
 11
20.97857728182756
 21
-4.800000000000026
 31
0.0
  0
ARC
  5
E5
  8
DEFAULT
 10
20.97857728182756
 20
-6.29999999999988
 30
0.0
 40
1.499999999999854
 50
48.68842594530584
 51
90.0
  0
ARC
  5
E6
  8
DEFAULT
 10
22.99999999999995
 20
-4.0
 30
0.0
 40
1.562049935181293
 50
228.6884259453082
 51
131.3115740546929
  0
ARC
  5
E7
  8
DEFAULT
 10
20.97857728182756
 20
-1.700000000000024
 30
0.0
 40
1.5
 50
270.0
 51
311.3115740546907
  0
LINE
  5
E8
  8
DEFAULT
 10
20.97857728182756
 20
-3.200000000000024
 30
0.0
 11
5.02142271817241
 21
-3.200000000000024
 31
0.0
  0
ARC
  5
E9
  8
DEFAULT
 10
-7.97857728182759
 20
-5.700000000000113
 30
0.0
 40
1.499999999999911
 50
228.6884259453069
 51
269.9999999999998
  0
ARC
  5
EA
  8
DEFAULT
 10
-9.999999999999986
 20
-8.000000000000028
 30
0.0
 40
1.56204993518127
 50
48.68842594530791
 51
311.3115740546921
  0
ARC
  5
EB
  8
DEFAULT
 10
-7.97857728182759
 20
-10.2999999999999
 30
0.0
 40
1.499999999999879
 50
90.00000000000014
 51
131.3115740546942
  0
LINE
  5
EC
  8
DEFAULT
 10
-7.97857728182759
 20
-8.800000000000026
 30
0.0
 11
7.978577281827562
 21
-8.800000000000026
 31
0.0
  0
ARC
  5
ED
  8
DEFAULT
 10
7.978577281827562
 20
-10.29999999999988
 30
0.0
 40
1.499999999999854
 50
48.68842594530589
 51
90.0
  0
ARC
  5
EE
  8
DEFAULT
 10
9.99999999999995
 20
-8.0
 30
0.0
 40
1.562049935181293
 50
228.6884259453082
 51
131.3115740546929
  0
ARC
  5
EF
  8
DEFAULT
 10
7.978577281827562
 20
-5.700000000000024
 30
0.0
 40
1.5
 50
270.0
 51
311.3115740546907
  0
LINE
  5
F0
  8
DEFAULT
 10
7.978577281827562
 20
-7.200000000000024
 30
0.0
 11
-7.97857728182759
 21
-7.200000000000024
 31
0.0
  0
ARC
  5
F1
  8
DEFAULT
 10
18.02142271817244
 20
-5.700000000000124
 30
0.0
 40
1.499999999999879
 50
228.688425945306
 51
269.9999999999997
  0
ARC
  5
F2
  8
DEFAULT
 10
16.00000000000004
 20
-8.000000000000007
 30
0.0
 40
1.562049935181267
 50
48.688425945308
 51
311.3115740546919
  0
ARC
  5
F3
  8
DEFAULT
 10
18.02142271817243
 20
-10.29999999999989
 30
0.0
 40
1.49999999999989
 50
90.0
 51
131.3115740546939
  0
LINE
  5
F4
  8
DEFAULT
 10
18.02142271817243
 20
-8.800000000000004
 30
0.0
 11
33.97857728182758
 21
-8.800000000000004
 31
0.0
  0
ARC
  5
F5
  8
DEFAULT
 10
33.97857728182758
 20
-10.3
 30
0.0
 40
1.5
 50
48.68842594530966
 51
90.0
  0
ARC
  5
F6
  8
DEFAULT
 10
35.99999999999997
 20
-8.000000000000036
 30
0.0
 40
1.562049935181295
 50
228.6884259453064
 51
131.3115740546914
  0
ARC
  5
F7
  8
DEFAULT
 10
33.97857728182758
 20
-5.700000000000141
 30
0.0
 40
1.499999999999861
 50
270.0
 51
311.3115740546943
  0
LINE
  5
F8
  8
DEFAULT
 10
33.97857728182758
 20
-7.200000000000003
 30
0.0
 11
18.02142271817243
 21
-7.200000000000003
 31
0.0
  0
ARC
  5
F9
  8
DEFAULT
 10
-33.97857728182757
 20
-5.700000000000113
 30
0.0
 40
1.49999999999989
 50
228.6884259453066
 51
270.0
  0
ARC
  5
FA
  8
DEFAULT
 10
-35.99999999999996
 20
-8.000000000000007
 30
0.0
 40
1.562049935181269
 50
48.688425945308
 51
311.3115740546918
  0
ARC
  5
FB
  8
DEFAULT
 10
-33.97857728182757
 20
-10.29999999999989
 30
0.0
 40
1.499999999999886
 50
90.0
 51
131.3115740546939
  0
LINE
  5
FC
  8
DEFAULT
 10
-33.97857728182757
 20
-8.800000000000004
 30
0.0
 11
-18.02142271817241
 21
-8.800000000000004
 31
0.0
  0
ARC
  5
FD
  8
DEFAULT
 10
-18.02142271817241
 20
-10.3
 30
0.0
 40
1.5
 50
48.68842594530976
 51
90.0
  0
ARC
  5
FE
  8
DEFAULT
 10
-16.00000000000001
 20
-8.000000000000028
 30
0.0
 40
1.5620499351813
 50
228.6884259453066
 51
131.3115740546921
  0
ARC
  5
FF
  8
DEFAULT
 10
-18.02142271817242
 20
-5.700000000000152
 30
0.0
 40
1.499999999999851
 50
270.0
 51
311.3115740546945
  0
LINE
  5
100
  8
DEFAULT
 10
-18.02142271817242
 20
-7.200000000000003
 30
0.0
 11
-33.97857728182757
 21
-7.200000000000003
 31
0.0
  0
ENDSEC
  0
EOF
